<svg width="311" height="62" viewBox="0 0 311 62" fill="none" xmlns="http://www.w3.org/2000/svg">
<path d="M285.352 18H163.648C153.349 18 145 26.5066 145 37C145 47.4934 153.349 56 163.648 56H285.352C295.651 56 304 47.4934 304 37C304 26.5066 295.651 18 285.352 18Z" stroke="white" stroke-opacity="0.7" stroke-width="2"/>
<path d="M141.626 49.6C140.061 49.6 138.911 49.5173 138.175 49.352C137.439 49.1866 137.071 48.9938 137.071 48.7733L138.451 45.1773C138.98 45.2875 140.291 45.3978 142.385 45.508C144.502 45.5906 147.4 45.632 151.082 45.632H151.737C152.727 45.632 153.428 45.4253 153.842 45.012C154.256 44.5711 154.463 43.8409 154.463 42.8213V41.9946C154.463 41.0302 154.291 40.3413 153.946 39.928C153.624 39.5146 152.888 39.308 151.737 39.308H143.731C141.407 39.308 139.716 38.7982 138.658 37.7786C137.6 36.7315 137.071 35.0369 137.071 32.6946V32.0333C137.071 30.8209 137.255 29.7049 137.623 28.6853C138.014 27.6658 138.67 26.8529 139.59 26.2466C140.51 25.6129 141.775 25.296 143.386 25.296H152.773C154.337 25.296 155.602 25.3924 156.569 25.5853C157.535 25.7782 158.018 25.9849 158.018 26.2053L157.328 29.6773C156.73 29.5946 155.372 29.512 153.256 29.4293C151.139 29.3191 148.298 29.264 144.732 29.264L144.352 29.2226C143.294 29.2226 142.581 29.4844 142.213 30.008C141.844 30.504 141.649 31.1377 141.626 31.9093V32.612C141.626 33.5213 141.833 34.2102 142.247 34.6786C142.684 35.1195 143.397 35.34 144.387 35.34H152.048C153.52 35.34 154.774 35.5191 155.809 35.8773C156.845 36.2355 157.638 36.8969 158.191 37.8613C158.743 38.7982 159.019 40.1898 159.019 42.036V42.6973C159.019 44.764 158.57 46.4311 157.673 47.6986C156.799 48.9662 155.269 49.6 153.083 49.6H141.626ZM170.782 49.6L170.747 29.2226H161.775V25.2546H184.344V29.2226H175.337V49.6H170.782ZM180.901 49.6L191.012 25.296H197.81L207.887 49.6H202.573L200.537 44.3506H188.182L185.939 49.6H180.901ZM189.425 40.3H199.26L194.532 29.016H194.187L189.425 40.3ZM232.708 50.0133C231.787 50.0133 230.879 49.848 229.981 49.5173C229.107 49.1591 228.106 48.3049 226.979 46.9546L224.494 43.9786C223.482 42.7386 222.366 41.8293 221.147 41.2506C219.951 40.672 218.444 40.3826 216.626 40.3826H215.556V49.6H211.001V28.6026L210.656 25.2546H225.944C227.416 25.2546 228.567 25.4889 229.395 25.9573C230.246 26.4258 230.867 27.0458 231.258 27.8173C231.672 28.5613 231.937 29.3604 232.052 30.2146C232.167 31.0689 232.225 31.8817 232.225 32.6533V33.4386C232.225 34.0449 232.156 34.72 232.018 35.464C231.88 36.208 231.615 36.9382 231.224 37.6546C230.833 38.3711 230.269 38.9773 229.533 39.4733C228.82 39.9693 227.876 40.2586 226.703 40.3413C227.002 40.5342 227.382 40.8373 227.842 41.2506C228.302 41.6364 228.774 42.0635 229.257 42.532C229.763 43.0004 230.223 43.4275 230.637 43.8133C231.051 44.1991 231.373 44.4746 231.603 44.64C232.432 45.2186 233.168 45.6182 233.812 45.8386C234.456 46.0591 234.985 46.1831 235.4 46.2106C235.814 46.2382 236.055 46.252 236.124 46.252L235.434 49.6C235.227 49.6826 234.882 49.7653 234.399 49.848C233.916 49.9582 233.352 50.0133 232.708 50.0133ZM220.733 36.6213C221.607 36.6213 222.389 36.6075 223.08 36.58C223.77 36.5249 224.391 36.4697 224.943 36.4146C225.955 36.2769 226.657 35.9462 227.048 35.4226C227.462 34.8715 227.669 34.1689 227.669 33.3146V32.364C227.669 31.4822 227.474 30.7382 227.083 30.132C226.692 29.5257 225.99 29.2226 224.978 29.2226H215.556V36.4146C216.569 36.4973 217.5 36.5524 218.352 36.58C219.203 36.6075 219.997 36.6213 220.733 36.6213ZM244.789 49.6L244.755 29.2226H235.782V25.2546H258.351V29.2226H249.344V49.6H244.789ZM261.814 49.6V25.296H283.279V29.264H266.369V34.968H279.276V39.06H266.369V45.632H283.417L284.798 49.1453C284.798 49.2555 284.487 49.3657 283.866 49.476C283.245 49.5586 282.175 49.6 280.656 49.6H261.814ZM285.82 49.6L287.131 47.12L294.793 37.448L285.82 25.296H291.342L298.002 34.4306H298.382L305.076 25.296H310.597L309.251 27.7346L301.625 37.448L310.597 49.6H305.076L298.382 40.3826H298.002L291.342 49.6H285.82Z" fill="white"/>
<path d="M189 15.1151L192.37 7.01378H194.637L197.996 15.1151H196.224L195.545 13.3653H191.427L190.679 15.1151H189ZM191.841 12.0151H195.12L193.544 8.25378H193.429L191.841 12.0151ZM200.684 15.1151C200.139 15.1151 199.714 15.0233 199.407 14.8396C199.1 14.6559 198.885 14.3803 198.763 14.0129C198.64 13.6455 198.579 13.1908 198.579 12.6489V9.57644C198.579 8.69467 198.744 8.04711 199.073 7.63378C199.403 7.21125 199.94 7 200.684 7H204.146C204.676 7 205.078 7.03675 205.354 7.11022C205.638 7.17452 205.78 7.24341 205.78 7.31689L205.55 8.46044C205.419 8.43289 205.032 8.40533 204.388 8.37778C203.751 8.34103 202.823 8.32267 201.604 8.32267H201.017C200.404 8.32267 200.097 8.64875 200.097 9.30089V12.8142C200.097 13.1265 200.162 13.3699 200.293 13.5444C200.431 13.7098 200.672 13.7924 201.017 13.7924H201.489C202.762 13.7924 203.748 13.7787 204.445 13.7511C205.151 13.7144 205.588 13.6776 205.757 13.6409L206.228 14.5502C206.228 14.5961 206.163 14.665 206.033 14.7569C205.91 14.8487 205.68 14.9314 205.343 15.0049C205.005 15.0784 204.518 15.1151 203.882 15.1151H200.684ZM206.457 15.1151L209.827 7.01378H212.094L215.453 15.1151H213.681L213.002 13.3653H208.884L208.137 15.1151H206.457ZM209.298 12.0151H212.577L211.001 8.25378H210.886L209.298 12.0151ZM216.491 15.1151V8.116L216.375 7.01378H221.713C222.334 7.01378 222.81 7.10564 223.139 7.28933C223.477 7.47303 223.711 7.74859 223.841 8.116C223.972 8.47422 224.037 8.9243 224.037 9.46622V12.6489C224.037 13.2 223.972 13.6593 223.841 14.0267C223.719 14.3849 223.488 14.6559 223.151 14.8396C222.821 15.0233 222.342 15.1151 221.713 15.1151H216.491ZM218.009 13.7924H221.621C222.212 13.7924 222.511 13.4664 222.518 12.8142V9.30089C222.518 9.03452 222.453 8.80947 222.323 8.62578C222.192 8.43289 221.959 8.33644 221.621 8.33644H218.009V13.7924ZM225.643 15.1151V7.01378H232.798V8.33644H227.162V10.2378H231.464V11.6018H227.162V13.7924H232.844L233.305 14.9636C233.305 15.0003 233.201 15.037 232.994 15.0738C232.787 15.1013 232.43 15.1151 231.924 15.1151H225.643ZM234.566 15.1151V8.116L234.451 7.01378H236.199L238.799 12.5249L241.491 7.01378H243.044V15.1151H241.525V9.976H241.399L240.95 11.1747L239.5 14.2884H238.109L236.659 11.1747L236.199 9.976H236.084V15.1151H234.566ZM244.886 15.1151V7.01378H246.405V15.1151H244.886ZM247.325 15.1151L250.696 7.01378H252.962L256.321 15.1151H254.549L253.871 13.3653H249.752L249.005 15.1151H247.325ZM250.166 12.0151H253.445L251.869 8.25378H251.754L250.166 12.0151Z" fill="white"/>
<rect x="124" y="6" width="3" height="56" fill="#00854A"/>
<path d="M105.163 29.5653C105.823 29.948 105.829 30.8983 105.174 31.289L98.7238 35.1384C98.0596 35.5348 97.2161 35.0594 97.2114 34.2859L97.1644 26.6668C97.1596 25.8933 97.9972 25.4075 98.6663 25.7957L105.163 29.5653Z" fill="#D9D9D9" fill-opacity="0.5"/>
<path d="M105.163 41.5653C105.823 41.948 105.829 42.8983 105.174 43.289L98.7238 47.1384C98.0596 47.5348 97.2161 47.0594 97.2114 46.2859L97.1644 38.6668C97.1596 37.8933 97.9972 37.4075 98.6663 37.7957L105.163 41.5653Z" fill="#D9D9D9" fill-opacity="0.7"/>
<path d="M115.163 35.5653C115.823 35.948 115.829 36.8983 115.174 37.289L108.724 41.1384C108.06 41.5348 107.216 41.0594 107.211 40.2859L107.164 32.6668C107.16 31.8933 107.997 31.4075 108.666 31.7957L115.163 35.5653Z" fill="#D9D9D9" fill-opacity="0.3"/>
<path d="M9.612 19.44H14.652L24.048 45H18.936L16.56 38.628H7.632L5.292 45H0.18L9.612 19.44ZM15.66 35.136L12.132 24.588L8.46 35.136H15.66ZM26.242 18.72H31.066V38.952C31.066 39.816 31.21 40.404 31.498 40.716C31.786 41.004 32.182 41.148 32.686 41.148C33.07 41.148 33.466 41.1 33.874 41.004C34.282 40.908 34.642 40.788 34.954 40.644L35.602 44.316C34.954 44.628 34.198 44.868 33.334 45.036C32.47 45.204 31.69 45.288 30.994 45.288C29.482 45.288 28.306 44.892 27.466 44.1C26.65 43.284 26.242 42.132 26.242 40.644V18.72ZM45.0838 45.108C43.8358 45.108 42.6838 44.868 41.6278 44.388C40.5958 43.884 39.6958 43.188 38.9278 42.3C38.1838 41.412 37.6078 40.392 37.1998 39.24C36.7918 38.088 36.5878 36.864 36.5878 35.568C36.5878 34.2 36.8038 32.928 37.2358 31.752C37.6678 30.576 38.2678 29.544 39.0358 28.656C39.8278 27.744 40.7518 27.048 41.8078 26.568C42.8878 26.064 44.0758 25.812 45.3718 25.812C46.8358 25.812 48.1198 26.148 49.2238 26.82C50.3278 27.468 51.2398 28.344 51.9598 29.448V26.136H56.1718V44.1C56.1718 45.972 55.7158 47.568 54.8038 48.888C53.9158 50.232 52.6798 51.252 51.0958 51.948C49.5118 52.668 47.7118 53.028 45.6958 53.028C43.6558 53.028 41.9278 52.68 40.5118 51.984C39.0958 51.312 37.8838 50.352 36.8758 49.104L39.5038 46.548C40.2238 47.436 41.1238 48.132 42.2038 48.636C43.3078 49.14 44.4718 49.392 45.6958 49.392C46.7278 49.392 47.6638 49.2 48.5038 48.816C49.3678 48.456 50.0518 47.88 50.5558 47.088C51.0838 46.32 51.3478 45.324 51.3478 44.1V41.724C50.7238 42.804 49.8358 43.644 48.6838 44.244C47.5558 44.82 46.3558 45.108 45.0838 45.108ZM46.7038 41.256C47.2318 41.256 47.7358 41.172 48.2158 41.004C48.6958 40.836 49.1398 40.608 49.5478 40.32C49.9558 40.032 50.3158 39.696 50.6278 39.312C50.9398 38.904 51.1798 38.496 51.3478 38.088V33.588C51.0598 32.844 50.6518 32.196 50.1238 31.644C49.6198 31.092 49.0438 30.672 48.3958 30.384C47.7718 30.072 47.1118 29.916 46.4158 29.916C45.6718 29.916 44.9998 30.072 44.3998 30.384C43.7998 30.696 43.2838 31.14 42.8518 31.716C42.4198 32.268 42.0838 32.892 41.8438 33.588C41.6278 34.26 41.5198 34.968 41.5198 35.712C41.5198 36.48 41.6518 37.2 41.9158 37.872C42.1798 38.544 42.5398 39.132 42.9958 39.636C43.4758 40.14 44.0278 40.536 44.6518 40.824C45.2998 41.112 45.9838 41.256 46.7038 41.256ZM59.2242 39.42C59.2242 38.196 59.5602 37.128 60.2322 36.216C60.9282 35.28 61.8882 34.56 63.1122 34.056C64.3362 33.552 65.7402 33.3 67.3242 33.3C68.1162 33.3 68.9202 33.36 69.7362 33.48C70.5522 33.6 71.2602 33.792 71.8602 34.056V33.048C71.8602 31.848 71.5002 30.924 70.7802 30.276C70.0842 29.628 69.0402 29.304 67.6482 29.304C66.6162 29.304 65.6322 29.484 64.6962 29.844C63.7602 30.204 62.7762 30.732 61.7442 31.428L60.1962 28.26C61.4442 27.444 62.7162 26.832 64.0122 26.424C65.3322 26.016 66.7122 25.812 68.1522 25.812C70.8402 25.812 72.9282 26.484 74.4162 27.828C75.9282 29.172 76.6842 31.092 76.6842 33.588V39.6C76.6842 40.104 76.7682 40.464 76.9362 40.68C77.1282 40.896 77.4282 41.028 77.8362 41.076V45C77.4042 45.072 77.0082 45.132 76.6482 45.18C76.3122 45.228 76.0242 45.252 75.7842 45.252C74.8242 45.252 74.0922 45.036 73.5882 44.604C73.1082 44.172 72.8082 43.644 72.6882 43.02L72.5802 42.048C71.7642 43.104 70.7442 43.92 69.5202 44.496C68.2962 45.072 67.0482 45.36 65.7762 45.36C64.5282 45.36 63.4002 45.108 62.3922 44.604C61.4082 44.076 60.6282 43.368 60.0522 42.48C59.5002 41.568 59.2242 40.548 59.2242 39.42ZM70.9602 40.392C71.2242 40.104 71.4402 39.816 71.6082 39.528C71.7762 39.24 71.8602 38.976 71.8602 38.736V36.828C71.2842 36.588 70.6602 36.408 69.9882 36.288C69.3162 36.144 68.6802 36.072 68.0802 36.072C66.8322 36.072 65.8002 36.348 64.9842 36.9C64.1922 37.428 63.7962 38.136 63.7962 39.024C63.7962 39.504 63.9282 39.96 64.1922 40.392C64.4562 40.824 64.8402 41.172 65.3442 41.436C65.8482 41.7 66.4482 41.832 67.1442 41.832C67.8642 41.832 68.5722 41.7 69.2682 41.436C69.9642 41.148 70.5282 40.8 70.9602 40.392ZM92.4241 30.312C90.9601 30.312 89.6521 30.6 88.5001 31.176C87.3481 31.728 86.5201 32.532 86.0161 33.588V45H81.1921V26.136H85.6201V30.168C86.2921 28.872 87.1441 27.852 88.1761 27.108C89.2081 26.364 90.3001 25.956 91.4521 25.884C91.7161 25.884 91.9201 25.884 92.0641 25.884C92.2081 25.884 92.3281 25.896 92.4241 25.92V30.312Z" fill="white"/>
<path d="M76.7783 48.9478H73.9209V56H72.8574V48.9478H70V48.0024H76.7783V48.9478ZM81.6123 53.105H77.1919C77.1919 53.4738 77.2474 53.7961 77.3584 54.0718C77.4694 54.3439 77.6216 54.5677 77.8149 54.7432C78.0011 54.915 78.2214 55.0439 78.4756 55.1299C78.7334 55.2158 79.0163 55.2588 79.3242 55.2588C79.7324 55.2588 80.1424 55.1782 80.5542 55.0171C80.9696 54.8524 81.265 54.6912 81.4404 54.5337H81.4941V55.6348C81.154 55.778 80.8066 55.8979 80.4521 55.9946C80.0977 56.0913 79.7253 56.1396 79.335 56.1396C78.3395 56.1396 77.5625 55.8711 77.0039 55.334C76.4453 54.7933 76.166 54.027 76.166 53.0352C76.166 52.054 76.4328 51.2752 76.9663 50.6987C77.5034 50.1222 78.2088 49.834 79.0825 49.834C79.8918 49.834 80.5148 50.0703 80.9517 50.543C81.3921 51.0156 81.6123 51.687 81.6123 52.5571V53.105ZM80.6294 52.3315C80.6258 51.8016 80.4915 51.3916 80.2266 51.1016C79.9652 50.8115 79.5659 50.6665 79.0288 50.6665C78.4881 50.6665 78.0566 50.8258 77.7344 51.1445C77.4157 51.4632 77.2349 51.8589 77.1919 52.3315H80.6294ZM84.1636 56H83.1538V47.6426H84.1636V56ZM91.1836 53.105H86.7632C86.7632 53.4738 86.8187 53.7961 86.9297 54.0718C87.0407 54.3439 87.1929 54.5677 87.3862 54.7432C87.5724 54.915 87.7926 55.0439 88.0469 55.1299C88.3047 55.2158 88.5876 55.2588 88.8955 55.2588C89.3037 55.2588 89.7137 55.1782 90.1255 55.0171C90.5409 54.8524 90.8363 54.6912 91.0117 54.5337H91.0654V55.6348C90.7253 55.778 90.3779 55.8979 90.0234 55.9946C89.6689 56.0913 89.2965 56.1396 88.9062 56.1396C87.9108 56.1396 87.1338 55.8711 86.5752 55.334C86.0166 54.7933 85.7373 54.027 85.7373 53.0352C85.7373 52.054 86.0041 51.2752 86.5376 50.6987C87.0747 50.1222 87.7801 49.834 88.6538 49.834C89.4631 49.834 90.0861 50.0703 90.5229 50.543C90.9634 51.0156 91.1836 51.687 91.1836 52.5571V53.105ZM90.2007 52.3315C90.1971 51.8016 90.0628 51.3916 89.7979 51.1016C89.5365 50.8115 89.1372 50.6665 88.6001 50.6665C88.0594 50.6665 87.6279 50.8258 87.3057 51.1445C86.987 51.4632 86.8062 51.8589 86.7632 52.3315H90.2007ZM97.1509 55.624C96.8143 55.7852 96.4938 55.9105 96.1895 56C95.8887 56.0895 95.5682 56.1343 95.228 56.1343C94.7948 56.1343 94.3973 56.0716 94.0356 55.9463C93.674 55.8174 93.3643 55.624 93.1064 55.3662C92.8451 55.1084 92.6427 54.7826 92.4995 54.3887C92.3563 53.9948 92.2847 53.5347 92.2847 53.0083C92.2847 52.0272 92.5532 51.2573 93.0903 50.6987C93.631 50.1401 94.3436 49.8608 95.228 49.8608C95.5718 49.8608 95.9084 49.9092 96.2378 50.0059C96.5708 50.1025 96.8752 50.2207 97.1509 50.3604V51.4829H97.0972C96.7892 51.243 96.4705 51.0586 96.1411 50.9297C95.8153 50.8008 95.4966 50.7363 95.1851 50.7363C94.6121 50.7363 94.1592 50.9297 93.8262 51.3164C93.4967 51.6995 93.332 52.2635 93.332 53.0083C93.332 53.7316 93.4932 54.2884 93.8154 54.6787C94.1413 55.0654 94.5978 55.2588 95.1851 55.2588C95.3892 55.2588 95.5968 55.2319 95.8081 55.1782C96.0194 55.1245 96.2091 55.0547 96.3774 54.9688C96.5243 54.8936 96.6621 54.8148 96.791 54.7324C96.9199 54.6465 97.022 54.5731 97.0972 54.5122H97.1509V55.624ZM103.564 53.0029C103.564 53.9805 103.313 54.7521 102.812 55.3179C102.311 55.8836 101.639 56.1665 100.798 56.1665C99.9492 56.1665 99.2743 55.8836 98.7729 55.3179C98.2752 54.7521 98.0264 53.9805 98.0264 53.0029C98.0264 52.0254 98.2752 51.2537 98.7729 50.688C99.2743 50.1187 99.9492 49.834 100.798 49.834C101.639 49.834 102.311 50.1187 102.812 50.688C103.313 51.2537 103.564 52.0254 103.564 53.0029ZM102.522 53.0029C102.522 52.2259 102.37 51.6494 102.065 51.2734C101.761 50.8939 101.339 50.7041 100.798 50.7041C100.25 50.7041 99.8239 50.8939 99.5195 51.2734C99.2188 51.6494 99.0684 52.2259 99.0684 53.0029C99.0684 53.7549 99.2205 54.326 99.5249 54.7163C99.8293 55.103 100.254 55.2964 100.798 55.2964C101.335 55.2964 101.756 55.1048 102.06 54.7217C102.368 54.335 102.522 53.762 102.522 53.0029ZM113.887 56H112.877V52.584C112.877 52.3262 112.865 52.0773 112.84 51.8374C112.818 51.5975 112.77 51.4059 112.695 51.2627C112.612 51.1087 112.494 50.9924 112.34 50.9136C112.186 50.8348 111.964 50.7954 111.674 50.7954C111.391 50.7954 111.109 50.867 110.826 51.0103C110.543 51.1499 110.26 51.3289 109.977 51.5474C109.988 51.6297 109.997 51.7264 110.004 51.8374C110.011 51.9448 110.015 52.0522 110.015 52.1597V56H109.005V52.584C109.005 52.319 108.992 52.0684 108.967 51.832C108.946 51.5921 108.897 51.4006 108.822 51.2573C108.74 51.1034 108.622 50.9888 108.468 50.9136C108.314 50.8348 108.092 50.7954 107.802 50.7954C107.526 50.7954 107.249 50.8634 106.969 50.9995C106.694 51.1356 106.418 51.3092 106.142 51.5205V56H105.132V50.0005H106.142V50.6665C106.457 50.4051 106.771 50.201 107.082 50.0542C107.397 49.9074 107.732 49.834 108.086 49.834C108.495 49.834 108.84 49.9199 109.123 50.0918C109.41 50.2637 109.623 50.5018 109.762 50.8062C110.17 50.4624 110.543 50.2153 110.879 50.0649C111.216 49.911 111.576 49.834 111.959 49.834C112.618 49.834 113.103 50.0345 113.415 50.4355C113.73 50.833 113.887 51.3898 113.887 52.106V56Z" fill="white"/>
</svg>
