<svg width="1071" height="315" viewBox="0 0 1071 315" fill="none" xmlns="http://www.w3.org/2000/svg">
<rect x="59" y="75" width="972" height="228" rx="114" stroke="white" stroke-width="12"/>
<path d="M40.32 252C30.8 252 23.8 251.58 19.32 250.74C14.84 249.9 12.6 248.92 12.6 247.8L21 229.53C24.22 230.09 32.2 230.65 44.94 231.21C57.82 231.63 75.46 231.84 97.86 231.84H101.85C107.87 231.84 112.14 230.79 114.66 228.69C117.18 226.45 118.44 222.74 118.44 217.56V213.36C118.44 208.46 117.39 204.96 115.29 202.86C113.33 200.76 108.85 199.71 101.85 199.71H53.13C38.99 199.71 28.7 197.12 22.26 191.94C15.82 186.62 12.6 178.01 12.6 166.11V162.75C12.6 156.59 13.72 150.92 15.96 145.74C18.34 140.56 22.33 136.43 27.93 133.35C33.53 130.13 41.23 128.52 51.03 128.52H108.15C117.67 128.52 125.37 129.01 131.25 129.99C137.13 130.97 140.07 132.02 140.07 133.14L135.87 150.78C132.23 150.36 123.97 149.94 111.09 149.52C98.21 148.96 80.92 148.68 59.22 148.68L56.91 148.47C50.47 148.47 46.13 149.8 43.89 152.46C41.65 154.98 40.46 158.2 40.32 162.12V165.69C40.32 170.31 41.58 173.81 44.1 176.19C46.76 178.43 51.1 179.55 57.12 179.55H103.74C112.7 179.55 120.33 180.46 126.63 182.28C132.93 184.1 137.76 187.46 141.12 192.36C144.48 197.12 146.16 204.19 146.16 213.57V216.93C146.16 227.43 143.43 235.9 137.97 242.34C132.65 248.78 123.34 252 110.04 252H40.32ZM217.74 252L217.53 148.47H162.93V128.31H300.27V148.47H245.46V252H217.74ZM279.316 252L340.846 128.52H382.216L443.536 252H411.196L398.806 225.33H323.626L309.976 252H279.316ZM331.186 204.75H391.036L362.266 147.42H360.166L331.186 204.75ZM594.574 254.1C588.974 254.1 583.444 253.26 577.984 251.58C572.664 249.76 566.574 245.42 559.714 238.56L544.594 223.44C538.434 217.14 531.644 212.52 524.224 209.58C516.944 206.64 507.774 205.17 496.714 205.17H490.204V252H462.484V145.32L460.384 128.31H553.414C562.374 128.31 569.374 129.5 574.414 131.88C579.594 134.26 583.374 137.41 585.754 141.33C588.274 145.11 589.884 149.17 590.584 153.51C591.284 157.85 591.634 161.98 591.634 165.9V169.89C591.634 172.97 591.214 176.4 590.374 180.18C589.534 183.96 587.924 187.67 585.544 191.31C583.164 194.95 579.734 198.03 575.254 200.55C570.914 203.07 565.174 204.54 558.034 204.96C559.854 205.94 562.164 207.48 564.964 209.58C567.764 211.54 570.634 213.71 573.574 216.09C576.654 218.47 579.454 220.64 581.974 222.6C584.494 224.56 586.454 225.96 587.854 226.8C592.894 229.74 597.374 231.77 601.294 232.89C605.214 234.01 608.434 234.64 610.954 234.78C613.474 234.92 614.944 234.99 615.364 234.99L611.164 252C609.904 252.42 607.804 252.84 604.864 253.26C601.924 253.82 598.494 254.1 594.574 254.1ZM521.704 186.06C527.024 186.06 531.784 185.99 535.984 185.85C540.184 185.57 543.964 185.29 547.324 185.01C553.484 184.31 557.754 182.63 560.134 179.97C562.654 177.17 563.914 173.6 563.914 169.26V164.43C563.914 159.95 562.724 156.17 560.344 153.09C557.964 150.01 553.694 148.47 547.534 148.47H490.204V185.01C496.364 185.43 502.034 185.71 507.214 185.85C512.394 185.99 517.224 186.06 521.704 186.06ZM668.092 252L667.882 148.47H613.282V128.31H750.622V148.47H695.812V252H668.092ZM771.693 252V128.52H902.313V148.68H799.413V177.66H877.953V198.45H799.413V231.84H903.153L911.553 249.69C911.553 250.25 909.663 250.81 905.883 251.37C902.103 251.79 895.593 252 886.353 252H771.693ZM917.774 252L925.754 239.4L972.374 190.26L917.774 128.52H951.374L991.904 174.93H994.214L1034.95 128.52H1068.55L1060.36 140.91L1013.95 190.26L1068.55 252H1034.95L994.214 205.17H991.904L951.374 252H917.774Z" fill="white"/>
<path d="M331 63L351.51 21.84H365.3L385.74 63H374.96L370.83 54.11H345.77L341.22 63H331ZM348.29 47.25H368.24L358.65 28.14H357.95L348.29 47.25ZM402.099 63C398.785 63 396.195 62.5333 394.329 61.6C392.462 60.6667 391.155 59.2667 390.409 57.4C389.662 55.5333 389.289 53.2233 389.289 50.47V34.86C389.289 30.38 390.292 27.09 392.299 24.99C394.305 22.8433 397.572 21.77 402.099 21.77H423.169C426.389 21.77 428.839 21.9567 430.519 22.33C432.245 22.6567 433.109 23.0067 433.109 23.38L431.709 29.19C430.915 29.05 428.559 28.91 424.639 28.77C420.765 28.5833 415.119 28.49 407.699 28.49H404.129C400.395 28.49 398.529 30.1467 398.529 33.46V51.31C398.529 52.8967 398.925 54.1333 399.719 55.02C400.559 55.86 402.029 56.28 404.129 56.28H406.999C414.745 56.28 420.742 56.21 424.989 56.07C429.282 55.8833 431.942 55.6967 432.969 55.51L435.839 60.13C435.839 60.3633 435.442 60.7133 434.649 61.18C433.902 61.6467 432.502 62.0667 430.449 62.44C428.395 62.8133 425.432 63 421.559 63H402.099ZM437.23 63L457.74 21.84H471.53L491.97 63H481.19L477.06 54.11H452L447.45 63H437.23ZM454.52 47.25H474.47L464.88 28.14H464.18L454.52 47.25ZM498.286 63V27.44L497.586 21.84H530.066C533.846 21.84 536.74 22.3067 538.746 23.24C540.8 24.1733 542.223 25.5733 543.016 27.44C543.81 29.26 544.206 31.5467 544.206 34.3V50.47C544.206 53.27 543.81 55.6033 543.016 57.47C542.27 59.29 540.87 60.6667 538.816 61.6C536.81 62.5333 533.893 63 530.066 63H498.286ZM507.526 56.28H529.506C533.1 56.28 534.92 54.6233 534.966 51.31V33.46C534.966 32.1067 534.57 30.9633 533.776 30.03C532.983 29.05 531.56 28.56 529.506 28.56H507.526V56.28ZM553.983 63V21.84H597.523V28.56H563.223V38.22H589.403V45.15H563.223V56.28H597.803L600.603 62.23C600.603 62.4167 599.973 62.6033 598.713 62.79C597.453 62.93 595.283 63 592.203 63H553.983ZM608.277 63V27.44L607.577 21.84H618.217L634.037 49.84L650.417 21.84H659.867V63H650.627V36.89H649.857L647.127 42.98L638.307 58.8H629.837L621.017 42.98L618.217 36.89H617.517V63H608.277ZM671.082 63V21.84H680.322V63H671.082ZM685.922 63L706.432 21.84H720.222L740.662 63H729.882L725.752 54.11H700.692L696.142 63H685.922ZM703.212 47.25H723.162L713.572 28.14H712.872L703.212 47.25Z" fill="white"/>
</svg>
